# xmcd CD database file
#
# Track frame offsets:
#	150
#	24383
#	52703
#	90834
#	109936
#	134161
#	158357
#	183746
#
# Disc length: 2809 seconds
#
# Revision: 0
# Processed by: cddbd v1.5.1PL0 Copyright (c) Steve Scherf et al.
# Submitted via: CDex 1.51
#
DISCID=5a0af708
DTITLE=John Coltrane - Various
DYEAR=1900
DGENRE=Jazz
TTITLE0=Village Blues
TTITLE1=Village Blues (Alternate Take)
TTITLE2=My Favourite Things
TTITLE3=Central Park West
TTITLE4=Mr Syms
TTITLE5=Untitled Original (Exotica)
TTITLE6=Body And Soul
TTITLE7=Body And Soul (Alternate Take)
EXTD=
EXTT0=
EXTT1=
EXTT2=
EXTT3=
EXTT4=
EXTT5=
EXTT6=
EXTT7=
PLAYORDER=
